HIERARCHY
ROOT mixamorig:Hips
{
	OFFSET 0.000000 201.639420 0.000000
	CHANNELS 6 Xposition Yposition Zposition Xrotation Yrotation Zrotation
	JOINT mixamorig:Spine
	{
		OFFSET 0.006200 19.524994 -2.481800
		CHANNELS 3 Xrotation Yrotation Zrotation
		JOINT mixamorig:Spine1
		{
			OFFSET -0.000900 22.835007 -2.825400
			CHANNELS 3 Xrotation Yrotation Zrotation
			JOINT mixamorig:Spine2
			{
				OFFSET -0.020600 26.552490 -3.193300
				CHANNELS 3 Xrotation Yrotation Zrotation
				JOINT mixamorig:Neck
				{
					OFFSET -0.060000 30.701813 1.352200
					CHANNELS 3 Xrotation Yrotation Zrotation
					JOINT mixamorig:Head
					{
						OFFSET -0.087200 22.547607 3.670900
						CHANNELS 3 Xrotation Yrotation Zrotation
						JOINT mixamorig:HeadTop_End
						{
							OFFSET -0.830600 40.355194 7.893500
							CHANNELS 3 Xrotation Yrotation Zrotation
							End Site
							{
								OFFSET 0.000000 30.592346 0.000000
							}
						}
						JOINT mixamorig:RightEye
						{
							OFFSET -6.302100 18.118591 16.197100
							CHANNELS 3 Xrotation Yrotation Zrotation
							End Site
							{
								OFFSET 0.000000 30.592346 0.000000
							}
						}
						JOINT mixamorig:LeftEye
						{
							OFFSET 6.741500 18.382690 16.401899
							CHANNELS 3 Xrotation Yrotation Zrotation
							End Site
							{
								OFFSET 0.000000 30.592346 0.000000
							}
						}
					}
				}
				JOINT mixamorig:LeftShoulder
				{
					OFFSET 11.924900 18.230499 1.425400
					CHANNELS 3 Xrotation Yrotation Zrotation
					JOINT mixamorig:LeftArm
					{
						OFFSET 25.435989 -0.697632 -5.229300
						CHANNELS 3 Xrotation Yrotation Zrotation
						JOINT mixamorig:LeftForeArm
						{
							OFFSET 54.684776 0.000000 0.000000
							CHANNELS 3 Xrotation Yrotation Zrotation
							JOINT mixamorig:LeftHand
							{
								OFFSET 55.098175 0.000000 0.000000
								CHANNELS 3 Xrotation Yrotation Zrotation
								JOINT mixamorig:LeftHandMiddle1
								{
									OFFSET 23.369751 0.000000 0.000000
									CHANNELS 3 Xrotation Yrotation Zrotation
									JOINT mixamorig:LeftHandMiddle2
									{
										OFFSET 6.378677 0.000000 0.000000
										CHANNELS 3 Xrotation Yrotation Zrotation
										JOINT mixamorig:LeftHandMiddle3
										{
											OFFSET 6.148331 0.000000 0.000000
											CHANNELS 3 Xrotation Yrotation Zrotation
											JOINT mixamorig:LeftHandMiddle4
											{
												OFFSET 6.582504 0.000000 0.000000
												CHANNELS 3 Xrotation Yrotation Zrotation
												End Site
												{
													OFFSET -1.168900 6.395691 1.028606
												}
											}
										}
									}
								}
								JOINT mixamorig:LeftHandThumb1
								{
									OFFSET 7.235672 -3.848206 5.434273
									CHANNELS 3 Xrotation Yrotation Zrotation
									JOINT mixamorig:LeftHandThumb2
									{
										OFFSET 6.568451 -3.792297 3.792300
										CHANNELS 3 Xrotation Yrotation Zrotation
										JOINT mixamorig:LeftHandThumb3
										{
											OFFSET 6.063080 -3.500519 3.500518
											CHANNELS 3 Xrotation Yrotation Zrotation
											JOINT mixamorig:LeftHandThumb4
											{
												OFFSET 4.793182 -2.767334 2.767349
												CHANNELS 3 Xrotation Yrotation Zrotation
												End Site
												{
													OFFSET 0.101639 6.054260 1.275483
												}
											}
										}
									}
								}
								JOINT mixamorig:LeftHandIndex1
								{
									OFFSET 23.101074 -0.309540 4.992809
									CHANNELS 3 Xrotation Yrotation Zrotation
									JOINT mixamorig:LeftHandIndex2
									{
										OFFSET 6.226883 0.000000 0.000000
										CHANNELS 3 Xrotation Yrotation Zrotation
										JOINT mixamorig:LeftHandIndex3
										{
											OFFSET 6.094330 0.000000 0.000000
											CHANNELS 3 Xrotation Yrotation Zrotation
											JOINT mixamorig:LeftHandIndex4
											{
												OFFSET 5.482605 0.000000 0.000000
												CHANNELS 3 Xrotation Yrotation Zrotation
												End Site
												{
													OFFSET -1.427902 5.233032 0.797164
												}
											}
										}
									}
								}
								JOINT mixamorig:LeftHandRing1
								{
									OFFSET 22.299240 0.021149 -3.964172
									CHANNELS 3 Xrotation Yrotation Zrotation
									JOINT mixamorig:LeftHandRing2
									{
										OFFSET 6.321869 0.000000 0.000000
										CHANNELS 3 Xrotation Yrotation Zrotation
										JOINT mixamorig:LeftHandRing3
										{
											OFFSET 5.899796 0.000000 0.000000
											CHANNELS 3 Xrotation Yrotation Zrotation
											JOINT mixamorig:LeftHandRing4
											{
												OFFSET 6.517899 0.000000 0.000000
												CHANNELS 3 Xrotation Yrotation Zrotation
												End Site
												{
													OFFSET -1.637299 6.232208 0.980890
												}
											}
										}
									}
								}
								JOINT mixamorig:LeftHandPinky1
								{
									OFFSET 20.463791 -0.302338 -8.562233
									CHANNELS 3 Xrotation Yrotation Zrotation
									JOINT mixamorig:LeftHandPinky2
									{
										OFFSET 6.908646 0.000000 0.000000
										CHANNELS 3 Xrotation Yrotation Zrotation
										JOINT mixamorig:LeftHandPinky3
										{
											OFFSET 4.622849 0.000000 0.000000
											CHANNELS 3 Xrotation Yrotation Zrotation
											JOINT mixamorig:LeftHandPinky4
											{
												OFFSET 5.216080 0.000000 0.000000
												CHANNELS 3 Xrotation Yrotation Zrotation
												End Site
												{
													OFFSET -0.606308 5.116241 0.814926
												}
											}
										}
									}
								}
							}
						}
					}
				}
				JOINT mixamorig:RightShoulder
				{
					OFFSET -12.001300 18.284088 1.348900
					CHANNELS 3 Xrotation Yrotation Zrotation
					JOINT mixamorig:RightArm
					{
						OFFSET -25.308500 -0.751312 -5.164599
						CHANNELS 3 Xrotation Yrotation Zrotation
						JOINT mixamorig:RightForeArm
						{
							OFFSET -54.684429 0.000000 0.000000
							CHANNELS 3 Xrotation Yrotation Zrotation
							JOINT mixamorig:RightHand
							{
								OFFSET -55.150291 0.000000 0.000000
								CHANNELS 3 Xrotation Yrotation Zrotation
								JOINT mixamorig:RightHandMiddle1
								{
									OFFSET -23.317566 0.000000 0.000000
									CHANNELS 3 Xrotation Yrotation Zrotation
									JOINT mixamorig:RightHandMiddle2
									{
										OFFSET -6.378403 0.000000 0.000000
										CHANNELS 3 Xrotation Yrotation Zrotation
										JOINT mixamorig:RightHandMiddle3
										{
											OFFSET -6.148193 0.000000 0.000000
											CHANNELS 3 Xrotation Yrotation Zrotation
											JOINT mixamorig:RightHandMiddle4
											{
												OFFSET -6.583389 0.000000 0.000000
												CHANNELS 3 Xrotation Yrotation Zrotation
												End Site
												{
													OFFSET 1.171692 6.395905 1.029786
												}
											}
										}
									}
								}
								JOINT mixamorig:RightHandThumb1
								{
									OFFSET -7.190521 -3.860474 5.435846
									CHANNELS 3 Xrotation Yrotation Zrotation
									JOINT mixamorig:RightHandThumb2
									{
										OFFSET -6.567429 -3.791718 3.791708
										CHANNELS 3 Xrotation Yrotation Zrotation
										JOINT mixamorig:RightHandThumb3
										{
											OFFSET -6.062469 -3.500153 3.500166
											CHANNELS 3 Xrotation Yrotation Zrotation
											JOINT mixamorig:RightHandThumb4
											{
												OFFSET -4.792618 -2.767029 2.767022
												CHANNELS 3 Xrotation Yrotation Zrotation
												End Site
												{
													OFFSET -0.100327 6.053253 1.276754
												}
											}
										}
									}
								}
								JOINT mixamorig:RightHandIndex1
								{
									OFFSET -23.048981 -0.310791 4.992554
									CHANNELS 3 Xrotation Yrotation Zrotation
									JOINT mixamorig:RightHandIndex2
									{
										OFFSET -6.227539 0.000000 0.000000
										CHANNELS 3 Xrotation Yrotation Zrotation
										JOINT mixamorig:RightHandIndex3
										{
											OFFSET -6.095047 0.000000 0.000000
											CHANNELS 3 Xrotation Yrotation Zrotation
											JOINT mixamorig:RightHandIndex4
											{
												OFFSET -5.484772 0.000000 0.000000
												CHANNELS 3 Xrotation Yrotation Zrotation
												End Site
												{
													OFFSET 1.420593 5.237305 0.797056
												}
											}
										}
									}
								}
								JOINT mixamorig:RightHandRing1
								{
									OFFSET -22.246323 0.020569 -3.963762
									CHANNELS 3 Xrotation Yrotation Zrotation
									JOINT mixamorig:RightHandRing2
									{
										OFFSET -6.322128 0.000000 0.000000
										CHANNELS 3 Xrotation Yrotation Zrotation
										JOINT mixamorig:RightHandRing3
										{
											OFFSET -5.900024 0.000000 0.000000
											CHANNELS 3 Xrotation Yrotation Zrotation
											JOINT mixamorig:RightHandRing4
											{
												OFFSET -6.518356 0.000000 0.000000
												CHANNELS 3 Xrotation Yrotation Zrotation
												End Site
												{
													OFFSET 1.636398 6.232697 0.982186
												}
											}
										}
									}
								}
								JOINT mixamorig:RightHandPinky1
								{
									OFFSET -20.411011 -0.303314 -8.561701
									CHANNELS 3 Xrotation Yrotation Zrotation
									JOINT mixamorig:RightHandPinky2
									{
										OFFSET -6.907349 0.000000 0.000000
										CHANNELS 3 Xrotation Yrotation Zrotation
										JOINT mixamorig:RightHandPinky3
										{
											OFFSET -4.623840 0.000000 0.000000
											CHANNELS 3 Xrotation Yrotation Zrotation
											JOINT mixamorig:RightHandPinky4
											{
												OFFSET -5.218353 0.000000 0.000000
												CHANNELS 3 Xrotation Yrotation Zrotation
												End Site
												{
													OFFSET 0.602097 5.118835 0.816273
												}
											}
										}
									}
								}
							}
						}
					}
				}
			}
		}
	}
	JOINT mixamorig:LeftUpLeg
	{
		OFFSET 18.168400 -13.561905 -0.039000
		CHANNELS 3 Xrotation Yrotation Zrotation
		JOINT mixamorig:LeftLeg
		{
			OFFSET 0.577358 -80.825211 -3.695000
			CHANNELS 3 Xrotation Yrotation Zrotation
			JOINT mixamorig:LeftFoot
			{
				OFFSET -0.577356 -83.370262 -6.520700
				CHANNELS 3 Xrotation Yrotation Zrotation
				JOINT mixamorig:LeftToeBase
				{
					OFFSET 0.750401 -20.798306 25.135401
					CHANNELS 3 Xrotation Yrotation Zrotation
					JOINT mixamorig:LeftToe_End
					{
						OFFSET -0.000500 0.001200 19.917799
						CHANNELS 3 Xrotation Yrotation Zrotation
						End Site
						{
							OFFSET 0.000000 19.917805 0.000000
						}
					}
				}
			}
		}
	}
	JOINT mixamorig:RightUpLeg
	{
		OFFSET -18.162500 -13.585098 -0.041000
		CHANNELS 3 Xrotation Yrotation Zrotation
		JOINT mixamorig:RightLeg
		{
			OFFSET -0.595024 -80.945297 -3.631900
			CHANNELS 3 Xrotation Yrotation Zrotation
			JOINT mixamorig:RightFoot
			{
				OFFSET 0.595024 -83.218193 -6.561200
				CHANNELS 3 Xrotation Yrotation Zrotation
				JOINT mixamorig:RightToeBase
				{
					OFFSET -0.753601 -20.807106 25.115000
					CHANNELS 3 Xrotation Yrotation Zrotation
					JOINT mixamorig:RightToe_End
					{
						OFFSET 0.000299 0.001700 19.918200
						CHANNELS 3 Xrotation Yrotation Zrotation
						End Site
						{
							OFFSET 0.000000 19.918203 0.000000
						}
					}
				}
			}
		}
	}
}
MOTION
Frames: 4
Frame Time: 0.033333
-0.411361 117.823349 -7.496445 -25.298942 -2.371126 -1.563715 3.889036 0.372957 -0.704631 7.784510 0.593590 -1.725436 7.784513 0.593590 -1.725434 18.460548 -10.361532 -6.160086 5.038140 -58.437418 23.045528 -0.000000 -0.000001 -0.000000 -0.000000 -0.000001 -0.000000 -0.000000 -0.000001 -0.000000 1.471950 3.045996 -18.135539 1.602671 -14.801679 -43.695667 0.811748 -36.001432 0.262750 22.447610 -4.091765 25.068848 -12.373941 15.012962 -61.237584 -1.436774 -2.870025 -46.000446 -0.000000 0.000000 -0.000005 0.000002 -0.000003 -0.000002 -5.781223 -19.794798 17.166108 -11.458807 29.458992 -26.351647 -0.000008 -0.000014 -0.000014 -0.000002 0.000002 -0.000000 -3.567103 3.842319 -60.590670 -10.164939 -4.550875 -53.684467 -0.000008 -0.000003 -0.000002 -0.000004 0.000001 0.000001 -11.901678 28.970391 -62.563071 -1.688354 -4.215941 -49.240760 0.000007 0.000002 0.000008 0.000001 -0.000000 -0.000000 -15.252156 30.084815 -69.930543 -0.435365 -5.276131 -20.890747 -0.000006 -0.000003 -0.000004 -0.000005 -0.000001 -0.000001 -0.273438 -11.510110 7.045231 -58.678633 -9.350154 13.040627 -59.337221 74.943370 58.323819 12.698567 -12.626614 6.367538 -2.971992 11.090084 55.200411 -3.528954 3.087630 84.934393 0.000005 -0.000000 -0.000002 0.000001 0.000000 -0.000002 34.442397 -3.282461 -3.036923 11.832784 -22.946832 -6.352129 0.000005 0.000004 0.000005 0.000000 -0.000003 0.000005 1.617376 6.211161 48.093192 0.407611 -2.165948 80.341405 0.000007 -0.000002 -0.000004 -0.000000 -0.000004 -0.000000 -1.402920 16.627085 76.000731 -0.377588 8.932654 75.100491 -0.000001 -0.000001 -0.000008 0.000001 -0.000001 -0.000000 -1.527913 18.474584 75.139895 2.502431 9.448402 48.185045 -0.000010 0.000003 -0.000005 -0.000001 0.000001 -0.000004 -70.473298 0.168913 10.976279 104.445231 -1.347538 -3.009203 1.004286 -1.611926 1.670533 -18.904972 -0.169033 0.612978 -0.000000 0.000000 -0.000000 -67.548433 0.716477 -11.364123 98.504414 1.410219 2.975723 -5.398026 2.984298 -1.269722 -1.556750 -0.182639 0.436401 0.000000 -0.000000 -0.000000 
-0.414655 117.823593 -7.503181 -25.295956 -2.360995 -1.560080 3.886932 0.374797 -0.713727 7.780408 0.596888 -1.742930 7.780408 0.596888 -1.742930 18.529924 -10.349163 -6.119961 5.220878 -58.352184 23.175940 0.000000 -0.000000 -0.000000 0.000000 -0.000000 -0.000000 0.000000 -0.000000 -0.000000 1.474707 3.065350 -18.136140 1.602512 -14.783255 -43.671878 0.825618 -36.076564 0.271735 22.487491 -4.049056 25.042769 -12.373933 15.012962 -61.237591 -1.436782 -2.870026 -46.000446 -0.000002 0.000002 -0.000003 0.000002 -0.000001 -0.000001 -5.824734 -19.816508 17.089820 -11.458806 29.458992 -26.351648 -0.000009 -0.000008 -0.000018 0.000004 -0.000001 0.000002 -3.567096 3.842318 -60.590670 -10.164939 -4.550870 -53.684467 -0.000007 -0.000003 -0.000004 -0.000000 -0.000001 -0.000002 -11.901678 28.970387 -62.563071 -1.688356 -4.215937 -49.240763 0.000007 -0.000001 0.000002 -0.000002 -0.000003 -0.000001 -15.252152 30.084818 -69.930543 -0.435358 -5.276126 -20.890747 -0.000004 -0.000000 0.000001 -0.000001 -0.000001 -0.000002 -0.282073 -11.596851 7.039749 -58.433990 -9.384706 12.980896 -59.431689 74.958574 58.421040 13.423419 -12.008578 7.935745 -2.842114 10.998303 53.170629 -3.350495 3.068804 82.921768 0.000004 0.000001 -0.000002 0.000000 0.000001 -0.000001 33.618925 -1.298094 -2.669014 11.023870 -20.884891 -6.320763 0.000003 0.000004 0.000009 0.000001 0.000001 -0.000003 1.732533 6.104659 46.075906 0.604997 -2.203080 78.347939 -0.000001 -0.000001 -0.000011 -0.000000 -0.000001 0.000000 -1.197922 16.548394 73.700746 -0.199162 8.853306 72.829802 0.000001 -0.000003 -0.000009 0.000000 -0.000002 0.000001 -1.291163 18.384491 72.826660 2.610780 9.315634 45.922425 -0.000010 0.000003 0.000003 -0.000002 0.000001 0.000001 -70.479554 0.171991 10.979930 104.439234 -1.347983 -3.009453 1.015439 -1.629043 1.676438 -18.904540 -0.169179 0.613392 0.000001 0.000001 0.000000 -67.551001 0.710099 -11.374415 98.501375 1.408191 2.976006 -5.395487 2.989797 -1.282361 -1.556491 -0.182640 0.436416 -0.000000 0.000001 0.000000 
-0.413752 117.816742 -7.506699 -25.287980 -2.357555 -1.559742 3.886156 0.382950 -0.723445 7.779051 0.612395 -1.763059 7.779047 0.612395 -1.763060 18.643117 -10.336164 -6.119420 5.265854 -58.269710 23.270420 -0.000000 0.000001 0.000000 -0.000000 0.000001 0.000000 -0.000000 0.000001 0.000000 1.476814 3.083156 -18.137680 1.612416 -14.782946 -43.639441 0.838896 -36.168638 0.280055 22.517448 -3.996463 25.020187 -12.373938 15.012964 -61.237584 -1.436775 -2.870025 -46.000446 -0.000008 0.000000 -0.000007 0.000001 -0.000002 0.000000 -5.832606 -19.852073 17.104662 -11.458800 29.458995 -26.351645 -0.000006 -0.000014 -0.000016 0.000002 0.000001 -0.000001 -3.567101 3.842314 -60.590670 -10.164935 -4.550873 -53.684471 -0.000005 -0.000001 -0.000006 -0.000002 0.000000 0.000000 -11.901679 28.970391 -62.563071 -1.688353 -4.215945 -49.240763 0.000007 0.000002 0.000006 -0.000003 -0.000001 -0.000000 -15.252152 30.084815 -69.930543 -0.435361 -5.276132 -20.890745 -0.000010 -0.000003 -0.000006 0.000000 -0.000002 -0.000005 -0.278964 -11.719519 7.124827 -58.391902 -9.695268 13.087024 -60.823306 75.172925 59.860659 14.777953 -11.670419 9.005262 -2.717185 10.903269 51.166498 -3.174969 3.044143 80.933862 0.000004 0.000003 -0.000008 -0.000001 -0.000000 -0.000000 32.805491 0.623742 -2.283551 10.245625 -18.881945 -6.259698 0.000004 0.000005 0.000006 -0.000001 0.000001 0.000000 1.842499 5.995598 44.083888 0.798616 -2.246471 76.378918 0.000003 -0.000002 -0.000005 0.000001 -0.000001 0.000000 -1.008767 16.463809 71.527312 -0.035217 8.770143 70.683401 -0.000002 -0.000003 -0.000006 -0.000001 -0.000002 0.000001 -1.073186 18.290004 70.641177 2.705974 9.186352 43.783992 -0.000009 0.000001 0.000001 0.000000 0.000002 -0.000000 -70.493768 0.172662 10.979923 104.438858 -1.347413 -3.009640 1.016594 -1.629621 1.678678 -18.895742 -0.169268 0.613525 -0.000000 0.000000 -0.000000 -67.565228 0.713927 -11.376830 98.500480 1.409989 2.976562 -5.387403 2.992639 -1.274095 -1.556022 -0.182639 0.436444 0.000000 -0.000000 -0.000000 
-0.407578 117.807480 -7.498825 -25.275586 -2.364542 -1.561937 3.886022 0.393772 -0.728735 7.779079 0.633315 -1.775156 7.779074 0.633315 -1.775158 18.782779 -10.327122 -6.161176 5.148971 -58.210321 23.283498 -0.000000 -0.000003 -0.000000 -0.000000 -0.000003 -0.000000 -0.000000 -0.000003 -0.000000 1.477318 3.094905 -18.139043 1.640852 -14.810871 -43.611912 0.842414 -36.235598 0.282162 22.519733 -3.958941 25.011593 -12.373940 15.012968 -61.237584 -1.436771 -2.870020 -46.000443 -0.000006 0.000001 -0.000004 0.000003 -0.000000 -0.000000 -5.807770 -19.907242 17.207810 -11.458800 29.458995 -26.351645 -0.000005 -0.000011 -0.000017 0.000004 -0.000003 -0.000001 -3.567102 3.842319 -60.590670 -10.164941 -4.550874 -53.684464 -0.000006 -0.000002 -0.000003 0.000000 -0.000001 -0.000002 -11.901676 28.970391 -62.563071 -1.688353 -4.215942 -49.240767 0.000012 -0.000002 0.000003 0.000002 0.000001 0.000002 -15.252157 30.084828 -69.930543 -0.435362 -5.276127 -20.890748 -0.000007 -0.000001 -0.000005 0.000000 -0.000001 -0.000002 -0.264459 -11.847444 7.260770 -58.451215 -10.169616 13.268314 -63.121617 75.494921 62.235639 16.239116 -11.563952 9.862493 -2.617461 10.822283 49.525200 -3.031889 3.019405 79.305272 0.000002 -0.000000 -0.000004 -0.000001 0.000001 -0.000000 32.142874 2.148284 -1.952975 9.623816 -17.282358 -6.186731 0.000005 0.000003 0.000005 0.000003 -0.000001 0.000003 1.929781 5.903471 42.452289 0.956051 -2.286846 74.765798 0.000002 -0.000004 -0.000005 -0.000001 0.000001 -0.000006 -0.876346 16.391225 69.908332 0.077956 8.702230 69.083327 -0.000002 -0.000003 -0.000007 -0.000001 -0.000002 -0.000001 -0.919778 18.209382 69.013625 2.765753 9.085987 42.190526 -0.000008 0.000002 -0.000000 -0.000002 -0.000002 0.000004 -70.512366 0.172268 10.974104 104.449186 -1.345365 -3.009715 1.010732 -1.610437 1.675638 -18.882130 -0.169358 0.613599 0.000000 0.000000 -0.000000 -67.587427 0.722809 -11.377020 98.508137 1.411859 2.977091 -5.384126 2.997806 -1.250127 -1.554736 -0.182628 0.436510 0.000000 -0.000000 -0.000000 
